# xmcd
#
# Track frame offsets:
# 150
# 14886
# 29592
# 40641
# 51995
# 67319
# 83834
# 97765
# 109322
# 136822
#
# Disc length: 2043 seconds
#
#
# Revision: 0
# Processed by: cddbd v1.5.2PL0 Copyright (c) Steve Scherf et al.
# Submitted via: Nero 7, 11, 10, 0 
#
DISCID=8907f90a
DTITLE=Martin and His Rhythm Kings - Blue Earwax
DYEAR=2003
DGENRE=Blues
TTITLE0=Thunderbird
TTITLE1=Baby Be Good
TTITLE2=Blue Earwax
TTITLE3=Lucky Boy
TTITLE4=C-53 Blues
TTITLE5=Gee I Wish
TTITLE6=Rockin' and Stompin'
TTITLE7=Lonely Town Blues
TTITLE8=The Right Way
TTITLE9=Comin' Home
EXTD=
EXTT0=Thunderbird
EXTT1=Baby Be Good
EXTT2=Blue Earwax
EXTT3=Lucky Boy
EXTT4=C-53 Blues
EXTT5=Gee I Wish
EXTT6=Rockin' and Stompin'
EXTT7=Lonely Town Blues
EXTT8=The Right Way
EXTT9=Comin' Home
PLAYORDER=
